<?xml version="1.0" encoding="UTF-8"?>
<svg id="Layer_1" data-name="Layer 1" xmlns="http://www.w3.org/2000/svg" viewBox="0 0 400 300">
  <defs>
    <style>
      .cls-1 {
        fill: #231f20;
        stroke-width: 0px;
      }
    </style>
  </defs>
  <g>
    <path class="cls-1" d="M70.77,158.28H29.26v-54.11h16.72v39.9h24.79v14.21Z"/>
    <path class="cls-1" d="M116.49,158.28l-2.58-7.35h-20.76l-2.58,7.35h-17.85l21.4-54.11h18.82l21.4,54.11h-17.85ZM103.57,121.69l-5.49,15.43h10.9l-5.41-15.43Z"/>
    <path class="cls-1" d="M191.6,158.28h-13.65l-23.58-26.09v26.09h-16.72v-54.11h13.73l23.58,27.14v-27.14h16.64v54.11Z"/>
    <path class="cls-1" d="M239.41,158.28h-37.39v-54.11h6.38v48.3h31.01v5.81Z"/>
    <path class="cls-1" d="M249.35,158.28v-54.11h6.38v54.11h-6.38Z"/>
    <path class="cls-1" d="M317.11,158.28h-5.49l-35.37-42.97v42.97h-6.38v-54.11h5.49l35.37,43.45v-43.45h6.38v54.11Z"/>
    <path class="cls-1" d="M370.74,158.28h-39.49v-54.11h39.41v5.73h-33.03v18.33h30.69v5.73h-30.69v18.5h33.11v5.81Z"/>
  </g>
  <g>
    <path class="cls-1" d="M41.12,180.21l-3.28.67c-.37-2.18-2.24-3.62-4.69-3.62s-4.02,1.32-4.02,3.13c0,1.44.83,2.21,2.61,2.58l4.45.95c3.07.67,5.28,2.39,5.28,5.62,0,3.87-3.16,6.29-7.89,6.29-4.36,0-7.98-2.12-8.5-6.11l3.5-.74c.49,2.64,2.55,3.93,5.31,3.93s4.33-1.32,4.33-3.19c0-1.57-.83-2.3-2.88-2.73l-4.48-.92c-2.55-.58-5.19-1.93-5.19-5.59s2.98-6.08,7.55-6.08c4.17,0,7.18,2.27,7.92,5.8Z"/>
    <path class="cls-1" d="M53.68,177.82v17.58h-3.31v-17.58h-7.21v-2.98h17.77v2.98h-7.24Z"/>
    <path class="cls-1" d="M77.64,195.4l-7.33-8.19h-2.98v8.19h-3.28v-20.56h9.67c4.23,0,7.06,2.49,7.06,6.2s-2.58,5.92-6.48,6.14l7.43,8.22h-4.08ZM73.71,184.23c2.27,0,3.77-1.29,3.77-3.19s-1.5-3.22-3.77-3.22h-6.38v6.41h6.38Z"/>
    <path class="cls-1" d="M101.67,186.32c0,5.68-3.47,9.51-8.68,9.51s-8.87-3.84-8.87-9.51v-11.48h3.28v11.48c0,3.84,2.21,6.35,5.59,6.35s5.4-2.52,5.4-6.35v-11.48h3.28v11.48Z"/>
    <path class="cls-1" d="M122.84,187.55l3.19.67c-1.13,4.82-5.12,7.61-9.97,7.61-5.98,0-10.71-4.69-10.71-10.71s4.73-10.71,10.71-10.71c4.85,0,8.81,2.82,9.97,7.37l-3.19.92c-.92-3.47-3.56-5.19-6.78-5.19-4.14,0-7.4,3.28-7.4,7.61s3.25,7.61,7.4,7.61c3.22,0,5.86-1.72,6.78-5.19Z"/>
    <path class="cls-1" d="M137.79,177.82v17.58h-3.31v-17.58h-7.21v-2.98h17.77v2.98h-7.24Z"/>
    <path class="cls-1" d="M165.49,186.32c0,5.68-3.47,9.51-8.68,9.51s-8.87-3.84-8.87-9.51v-11.48h3.28v11.48c0,3.84,2.21,6.35,5.59,6.35s5.4-2.52,5.4-6.35v-11.48h3.28v11.48Z"/>
    <path class="cls-1" d="M183.72,195.4l-7.33-8.19h-2.98v8.19h-3.28v-20.56h9.67c4.23,0,7.06,2.49,7.06,6.2s-2.58,5.92-6.48,6.14l7.43,8.22h-4.08ZM179.79,184.23c2.27,0,3.77-1.29,3.77-3.19s-1.5-3.22-3.77-3.22h-6.38v6.41h6.38Z"/>
    <path class="cls-1" d="M206.06,195.4h-15.31v-20.56h15.28v2.98h-12v5.8h11.08v2.95h-11.08v5.86h12.03v2.98Z"/>
    <path class="cls-1" d="M217.45,174.84c7,0,11.35,4.3,11.35,10.28s-4.36,10.28-11.35,10.28h-7.18v-20.56h7.18ZM217.45,192.43c5,0,8.04-3.04,8.04-7.3s-3.04-7.3-8.04-7.3h-3.9v14.61h3.9Z"/>
    <path class="cls-1" d="M256.78,187.55l3.19.67c-1.13,4.82-5.12,7.61-9.97,7.61-5.98,0-10.71-4.69-10.71-10.71s4.73-10.71,10.71-10.71c4.85,0,8.81,2.82,9.97,7.37l-3.19.92c-.92-3.47-3.56-5.19-6.78-5.19-4.14,0-7.4,3.28-7.4,7.61s3.25,7.61,7.4,7.61c3.22,0,5.86-1.72,6.78-5.19Z"/>
    <path class="cls-1" d="M278.63,195.4l-2.03-4.79h-10l-2.03,4.79h-3.56l9.05-20.56h3.07l9.05,20.56h-3.56ZM271.61,178.86l-3.71,8.75h7.43l-3.71-8.75Z"/>
    <path class="cls-1" d="M297.41,184.94c1.99.22,3.87,1.93,3.87,4.82,0,3.31-2.15,5.65-6.51,5.65h-10v-20.56h9.79c3.77,0,6.11,2.24,6.11,5.55,0,2.61-1.75,4.17-3.25,4.42v.12ZM288.05,183.74h6.14c1.96,0,3.28-1.26,3.28-3.16,0-1.75-1.35-2.91-3.25-2.91h-6.17v6.08ZM294.44,192.58c2.21,0,3.47-1.26,3.47-3.13s-1.38-3.07-3.38-3.07h-6.47v6.2h6.38Z"/>
    <path class="cls-1" d="M319.66,195.4h-14.52v-20.56h3.28v17.58h11.23v2.98Z"/>
    <path class="cls-1" d="M323.22,195.4v-20.56h3.28v20.56h-3.28Z"/>
    <path class="cls-1" d="M349.85,195.4h-2.79l-12.43-14.76v14.76h-3.28v-20.56h2.79l12.4,15.01v-15.01h3.31v20.56Z"/>
    <path class="cls-1" d="M374.86,183.74c.03.55.06,1.04.06,1.41,0,6.05-4.27,10.68-10.37,10.68s-10.8-4.69-10.8-10.71,4.69-10.71,10.71-10.71c4.39,0,8.32,2.12,9.79,6.08l-2.98,1.04c-1.44-2.95-4.05-4.02-6.81-4.02-4.14,0-7.37,3.31-7.37,7.61s3.28,7.61,7.55,7.61c3.77,0,6.44-2.42,7.06-5.98h-8.16v-3.01h11.32Z"/>
  </g>
</svg>