<?xml version="1.0" encoding="UTF-8"?>
<svg id="Layer_1" data-name="Layer 1" xmlns="http://www.w3.org/2000/svg" viewBox="0 0 400 300">
  <defs>
    <style>
      .cls-1 {
        fill: #231f20;
        stroke-width: 0px;
      }
    </style>
  </defs>
  <g>
    <path class="cls-1" d="M77.9,120.16l-16.49,3.36c-1.23-5.25-5.09-6.48-7.71-6.48-2.95,0-5.08,1.39-5.08,3.77,0,1.31.49,2.54,2.71,3.04l10.91,2.79c10.42,2.62,16.08,7.46,16.08,16.4,0,13.37-12.88,18.54-23.87,18.54-13.78,0-24.03-6.81-25.59-17.14l17.23-3.2c1.23,4.84,4.27,6.89,8.61,6.89,3.12,0,5.66-1.23,5.66-3.77,0-1.31-.66-2.46-3.12-3.12l-11.32-2.79c-9.84-2.38-15.26-7.3-15.26-16.08,0-11.98,10.17-18.21,23.05-18.21s22.23,5.66,24.2,15.99Z"/>
    <path class="cls-1" d="M128.02,160.35h-44.29v-54.96h43.88v14.03h-26.9v7.14h24.69v12.63h-24.69v7.14h27.31v14.03Z"/>
    <path class="cls-1" d="M190.36,140.09c-2.3,13.21-13.12,21.49-28.63,21.49-16.65,0-29.69-12.63-29.69-28.71s13.04-28.71,29.69-28.71c14.03,0,26.08,8.12,28.54,20.92l-16.98,3.28c-1.39-5.66-5.5-9.02-11.57-9.02-7.05,0-12.71,5.82-12.71,13.53s5.66,13.53,12.71,13.53c5.99,0,10.09-3.53,11.65-9.6l16.98,3.28Z"/>
    <path class="cls-1" d="M237.77,160.35h-37.98v-54.96h6.48v49.05h31.5v5.91Z"/>
    <path class="cls-1" d="M247.86,160.35v-54.96h6.48v54.96h-6.48Z"/>
    <path class="cls-1" d="M316.68,160.35h-5.58l-35.93-43.64v43.64h-6.48v-54.96h5.58l35.93,44.13v-44.13h6.48v54.96Z"/>
    <path class="cls-1" d="M371.15,160.35h-40.11v-54.96h40.03v5.82h-33.55v18.62h31.17v5.82h-31.17v18.78h33.63v5.91Z"/>
  </g>
  <g>
    <path class="cls-1" d="M17.3,179.97l-3.34.69c-.37-2.21-2.27-3.68-4.77-3.68s-4.08,1.34-4.08,3.18c0,1.46.84,2.24,2.65,2.62l4.52.97c3.12.69,5.36,2.43,5.36,5.7,0,3.93-3.21,6.39-8.01,6.39-4.43,0-8.1-2.15-8.63-6.2l3.55-.75c.5,2.68,2.59,3.99,5.39,3.99s4.39-1.34,4.39-3.24c0-1.59-.84-2.34-2.93-2.77l-4.55-.94c-2.59-.59-5.27-1.96-5.27-5.67s3.02-6.17,7.67-6.17c4.24,0,7.29,2.31,8.04,5.89Z"/>
    <path class="cls-1" d="M37.28,195.4h-15.55v-20.88h15.52v3.02h-12.19v5.89h11.25v2.99h-11.25v5.95h12.22v3.02Z"/>
    <path class="cls-1" d="M58,187.42l3.24.69c-1.15,4.89-5.2,7.73-10.13,7.73-6.08,0-10.88-4.77-10.88-10.88s4.8-10.88,10.88-10.88c4.92,0,8.94,2.87,10.13,7.48l-3.24.94c-.94-3.52-3.62-5.27-6.89-5.27-4.21,0-7.51,3.34-7.51,7.73s3.3,7.73,7.51,7.73c3.27,0,5.95-1.75,6.89-5.27Z"/>
    <path class="cls-1" d="M82.81,186.17c0,5.77-3.52,9.66-8.82,9.66s-9.01-3.89-9.01-9.66v-11.66h3.34v11.66c0,3.9,2.24,6.45,5.67,6.45s5.48-2.56,5.48-6.45v-11.66h3.34v11.66Z"/>
    <path class="cls-1" d="M101.32,195.4l-7.45-8.32h-3.02v8.32h-3.34v-20.88h9.82c4.3,0,7.17,2.52,7.17,6.3s-2.62,6.01-6.58,6.23l7.54,8.35h-4.14ZM97.33,184.05c2.31,0,3.83-1.31,3.83-3.24s-1.53-3.27-3.83-3.27h-6.48v6.51h6.48Z"/>
    <path class="cls-1" d="M108.45,195.4v-20.88h3.34v20.88h-3.34Z"/>
    <path class="cls-1" d="M125.66,177.54v17.86h-3.37v-17.86h-7.32v-3.02h18.04v3.02h-7.35Z"/>
    <path class="cls-1" d="M145.95,195.4h-3.34v-6.92l-8.45-13.96h3.71l6.42,10.47,6.39-10.47h3.83l-8.57,13.9v6.98Z"/>
    <path class="cls-1" d="M180.44,179.97l-3.34.69c-.37-2.21-2.27-3.68-4.77-3.68s-4.08,1.34-4.08,3.18c0,1.46.84,2.24,2.65,2.62l4.52.97c3.12.69,5.36,2.43,5.36,5.7,0,3.93-3.21,6.39-8.01,6.39-4.43,0-8.1-2.15-8.63-6.2l3.55-.75c.5,2.68,2.59,3.99,5.39,3.99s4.39-1.34,4.39-3.24c0-1.59-.84-2.34-2.93-2.77l-4.55-.94c-2.59-.59-5.27-1.96-5.27-5.67s3.02-6.17,7.67-6.17c4.24,0,7.29,2.31,8.04,5.89Z"/>
    <path class="cls-1" d="M202.48,186.17c0,5.77-3.52,9.66-8.82,9.66s-9.01-3.89-9.01-9.66v-11.66h3.34v11.66c0,3.9,2.24,6.45,5.67,6.45s5.48-2.56,5.48-6.45v-11.66h3.34v11.66Z"/>
    <path class="cls-1" d="M220.99,195.4l-7.45-8.32h-3.02v8.32h-3.34v-20.88h9.82c4.3,0,7.17,2.52,7.17,6.3s-2.62,6.01-6.58,6.23l7.54,8.35h-4.14ZM217,184.05c2.31,0,3.83-1.31,3.83-3.24s-1.53-3.27-3.83-3.27h-6.48v6.51h6.48Z"/>
    <path class="cls-1" d="M237.2,195.4h-3.21l-9.07-20.88h3.68l6.98,16.36,6.98-16.36h3.71l-9.07,20.88Z"/>
    <path class="cls-1" d="M264.68,195.4h-15.55v-20.88h15.52v3.02h-12.19v5.89h11.25v2.99h-11.25v5.95h12.22v3.02Z"/>
    <path class="cls-1" d="M268.95,195.4v-20.88h3.33v20.88h-3.33Z"/>
    <path class="cls-1" d="M291.95,195.4h-14.74v-20.88h3.34v17.86h11.41v3.02Z"/>
    <path class="cls-1" d="M310.31,195.4h-14.74v-20.88h3.34v17.86h11.41v3.02Z"/>
    <path class="cls-1" d="M329.5,195.4l-2.06-4.86h-10.16l-2.06,4.86h-3.62l9.19-20.88h3.12l9.19,20.88h-3.62ZM322.37,178.6l-3.77,8.88h7.54l-3.77-8.88Z"/>
    <path class="cls-1" d="M354.53,195.4h-2.84l-12.62-14.99v14.99h-3.34v-20.88h2.84l12.59,15.24v-15.24h3.37v20.88Z"/>
    <path class="cls-1" d="M376.25,187.42l3.24.69c-1.15,4.89-5.2,7.73-10.13,7.73-6.08,0-10.88-4.77-10.88-10.88s4.8-10.88,10.88-10.88c4.92,0,8.94,2.87,10.13,7.48l-3.24.94c-.94-3.52-3.62-5.27-6.89-5.27-4.21,0-7.51,3.34-7.51,7.73s3.3,7.73,7.51,7.73c3.27,0,5.95-1.75,6.89-5.27Z"/>
    <path class="cls-1" d="M399,195.4h-15.55v-20.88h15.52v3.02h-12.19v5.89h11.25v2.99h-11.25v5.95h12.22v3.02Z"/>
  </g>
</svg>