<?xml version="1.0" encoding="UTF-8"?>
<svg id="Layer_1" data-name="Layer 1" xmlns="http://www.w3.org/2000/svg" viewBox="0 0 400 300">
  <defs>
    <style>
      .cls-1 {
        fill: #231f20;
        stroke-width: 0px;
      }
    </style>
  </defs>
  <g>
    <path class="cls-1" d="M41.77,105.4c12.06,0,20.01,7.96,20.01,19.6,0,12.22-8.53,20.26-21.41,20.26h-10.83v15.09H12.57v-54.96h29.2ZM37.91,132.14c4.02,0,7.22-2.62,7.22-6.64,0-3.69-3.2-6.32-7.22-6.32h-8.37v12.96h8.37Z"/>
    <path class="cls-1" d="M125.44,132.88c0,16.08-13.12,28.71-29.78,28.71s-29.77-12.63-29.77-28.71,13.04-28.71,29.77-28.71,29.78,12.63,29.78,28.71ZM108.37,132.88c0-7.71-5.25-13.53-12.71-13.53s-12.8,5.82-12.8,13.53,5.33,13.53,12.8,13.53,12.71-5.82,12.71-13.53Z"/>
    <path class="cls-1" d="M193.6,160.35h-18.29l-7.05-29.28-7.05,29.28h-18.21l-15.17-54.96h17.22l8.2,29.69,7.05-29.69h15.99l7.05,29.69,8.12-29.69h17.31l-15.17,54.96Z"/>
    <path class="cls-1" d="M254.05,160.35h-37.98v-54.96h6.48v49.05h31.5v5.91Z"/>
    <path class="cls-1" d="M264.15,160.35v-54.96h6.48v54.96h-6.48Z"/>
    <path class="cls-1" d="M332.97,160.35h-5.58l-35.93-43.64v43.64h-6.48v-54.96h5.58l35.93,44.13v-44.13h6.48v54.96Z"/>
    <path class="cls-1" d="M387.43,160.35h-40.11v-54.96h40.03v5.82h-33.55v18.62h31.17v5.82h-31.17v18.78h33.63v5.91Z"/>
  </g>
  <g>
    <path class="cls-1" d="M112.19,186.17c0,5.77-3.52,9.66-8.82,9.66s-9.01-3.9-9.01-9.66v-11.66h3.34v11.66c0,3.9,2.24,6.45,5.67,6.45s5.48-2.56,5.48-6.45v-11.66h3.34v11.66Z"/>
    <path class="cls-1" d="M126.31,174.52c4.61,0,7.51,2.74,7.51,6.73s-2.9,6.79-7.51,6.79h-6.08v7.36h-3.34v-20.88h9.41ZM126.31,184.99c2.62,0,4.18-1.5,4.18-3.74s-1.56-3.71-4.18-3.71h-6.08v7.45h6.08Z"/>
    <path class="cls-1" d="M152.74,179.97l-3.34.69c-.37-2.21-2.27-3.68-4.77-3.68s-4.08,1.34-4.08,3.18c0,1.47.84,2.24,2.65,2.62l4.52.97c3.12.69,5.36,2.43,5.36,5.7,0,3.93-3.21,6.39-8.01,6.39-4.43,0-8.1-2.15-8.63-6.2l3.55-.75c.5,2.68,2.59,3.99,5.39,3.99s4.39-1.34,4.39-3.24c0-1.59-.84-2.34-2.93-2.77l-4.55-.93c-2.59-.59-5.27-1.96-5.27-5.67s3.02-6.17,7.67-6.17c4.24,0,7.29,2.31,8.04,5.89Z"/>
    <path class="cls-1" d="M180.19,179.97l-3.34.69c-.37-2.21-2.27-3.68-4.77-3.68s-4.08,1.34-4.08,3.18c0,1.47.84,2.24,2.65,2.62l4.52.97c3.12.69,5.36,2.43,5.36,5.7,0,3.93-3.21,6.39-8.01,6.39-4.43,0-8.1-2.15-8.63-6.2l3.55-.75c.5,2.68,2.59,3.99,5.39,3.99s4.39-1.34,4.39-3.24c0-1.59-.84-2.34-2.93-2.77l-4.55-.93c-2.59-.59-5.27-1.96-5.27-5.67s3.02-6.17,7.67-6.17c4.24,0,7.29,2.31,8.04,5.89Z"/>
    <path class="cls-1" d="M193.35,195.4h-3.34v-6.92l-8.45-13.96h3.71l6.42,10.47,6.39-10.47h3.83l-8.57,13.9v6.98Z"/>
    <path class="cls-1" d="M219.06,179.97l-3.34.69c-.37-2.21-2.27-3.68-4.77-3.68s-4.08,1.34-4.08,3.18c0,1.47.84,2.24,2.65,2.62l4.52.97c3.12.69,5.36,2.43,5.36,5.7,0,3.93-3.21,6.39-8.01,6.39-4.43,0-8.1-2.15-8.63-6.2l3.55-.75c.5,2.68,2.59,3.99,5.39,3.99s4.39-1.34,4.39-3.24c0-1.59-.84-2.34-2.93-2.77l-4.55-.93c-2.59-.59-5.27-1.96-5.27-5.67s3.02-6.17,7.67-6.17c4.24,0,7.29,2.31,8.04,5.89Z"/>
    <path class="cls-1" d="M231.8,177.54v17.86h-3.37v-17.86h-7.32v-3.02h18.05v3.02h-7.35Z"/>
    <path class="cls-1" d="M257.89,195.4h-15.55v-20.88h15.52v3.02h-12.19v5.89h11.25v2.99h-11.25v5.95h12.22v3.02Z"/>
    <path class="cls-1" d="M285.03,195.4h-3.24v-13.81l-7.39,13.81h-1.59l-7.42-13.81v13.81h-3.24v-20.88h2.93l8.51,15.8,8.54-15.8h2.9v20.88Z"/>
    <path class="cls-1" d="M305.29,179.97l-3.34.69c-.37-2.21-2.27-3.68-4.77-3.68s-4.08,1.34-4.08,3.18c0,1.47.84,2.24,2.65,2.62l4.52.97c3.12.69,5.36,2.43,5.36,5.7,0,3.93-3.21,6.39-8.01,6.39-4.43,0-8.1-2.15-8.63-6.2l3.55-.75c.5,2.68,2.59,3.99,5.39,3.99s4.39-1.34,4.39-3.24c0-1.59-.84-2.34-2.93-2.77l-4.55-.93c-2.59-.59-5.27-1.96-5.27-5.67s3.02-6.17,7.67-6.17c4.24,0,7.29,2.31,8.04,5.89Z"/>
  </g>
</svg>