<?xml version="1.0" encoding="UTF-8"?>
<svg id="Layer_1" data-name="Layer 1" xmlns="http://www.w3.org/2000/svg" viewBox="0 0 400 300">
  <defs>
    <style>
      .cls-1 {
        fill: #231f20;
        stroke-width: 0px;
      }
    </style>
  </defs>
  <g>
    <path class="cls-1" d="M81.59,140.09c-2.3,13.21-13.12,21.49-28.63,21.49-16.65,0-29.69-12.63-29.69-28.71s13.04-28.71,29.69-28.71c14.03,0,26.08,8.12,28.54,20.92l-16.98,3.28c-1.39-5.66-5.5-9.02-11.57-9.02-7.05,0-12.71,5.82-12.71,13.53s5.66,13.53,12.71,13.53c5.99,0,10.09-3.53,11.65-9.6l16.98,3.28Z"/>
    <path class="cls-1" d="M125.32,160.35l-2.62-7.46h-21.08l-2.62,7.46h-18.13l21.74-54.96h19.11l21.74,54.96h-18.13ZM112.19,123.2l-5.58,15.67h11.07l-5.5-15.67Z"/>
    <path class="cls-1" d="M184.05,132.3c5.99.08,12.14,3.28,12.14,12.47s-7.3,15.58-18.78,15.58h-30.6v-54.96h30.51c10.33,0,17.22,5.82,17.22,14.6s-6.15,11.89-10.5,11.98v.33ZM163.79,127.71h8.69c3.28,0,5.5-1.97,5.5-4.76s-2.21-4.59-5.41-4.59h-8.78v9.35ZM173.3,147.39c3.36,0,5.5-1.97,5.5-5.17,0-2.79-2.13-4.59-5.5-4.59h-9.51v9.76h9.51Z"/>
    <path class="cls-1" d="M243.35,160.35h-37.98v-54.96h6.48v49.05h31.5v5.91Z"/>
    <path class="cls-1" d="M253.44,160.35v-54.96h6.48v54.96h-6.48Z"/>
    <path class="cls-1" d="M322.26,160.35h-5.58l-35.93-43.64v43.64h-6.48v-54.96h5.58l35.93,44.13v-44.13h6.48v54.96Z"/>
    <path class="cls-1" d="M376.72,160.35h-40.11v-54.96h40.03v5.82h-33.55v18.62h31.17v5.82h-31.17v18.78h33.63v5.91Z"/>
  </g>
  <g>
    <path class="cls-1" d="M45.94,187.42l3.24.69c-1.15,4.89-5.2,7.73-10.13,7.73-6.08,0-10.88-4.77-10.88-10.88s4.8-10.88,10.88-10.88c4.92,0,8.94,2.87,10.13,7.48l-3.24.93c-.94-3.52-3.62-5.27-6.89-5.27-4.21,0-7.51,3.33-7.51,7.73s3.3,7.73,7.51,7.73c3.27,0,5.95-1.74,6.89-5.27Z"/>
    <path class="cls-1" d="M68.13,195.4l-2.06-4.86h-10.16l-2.06,4.86h-3.62l9.19-20.88h3.12l9.19,20.88h-3.62ZM60.99,178.6l-3.77,8.88h7.54l-3.77-8.88Z"/>
    <path class="cls-1" d="M87.2,184.77c2.03.22,3.93,1.96,3.93,4.89,0,3.37-2.18,5.73-6.61,5.73h-10.16v-20.88h9.94c3.83,0,6.2,2.27,6.2,5.64,0,2.65-1.78,4.24-3.3,4.49v.12ZM77.7,183.55h6.23c1.99,0,3.34-1.28,3.34-3.21,0-1.78-1.37-2.96-3.3-2.96h-6.26v6.17ZM84.18,192.53c2.24,0,3.52-1.28,3.52-3.18s-1.4-3.12-3.43-3.12h-6.58v6.3h6.48Z"/>
    <path class="cls-1" d="M95.05,195.4v-20.88h3.34v20.88h-3.34Z"/>
    <path class="cls-1" d="M122.1,195.4h-2.84l-12.62-14.99v14.99h-3.34v-20.88h2.84l12.59,15.24v-15.24h3.37v20.88Z"/>
    <path class="cls-1" d="M142.58,195.4h-15.55v-20.88h15.52v3.02h-12.19v5.89h11.25v2.99h-11.25v5.95h12.22v3.02Z"/>
    <path class="cls-1" d="M155.79,177.54v17.86h-3.37v-17.86h-7.32v-3.02h18.04v3.02h-7.35Z"/>
    <path class="cls-1" d="M181.04,179.97l-3.34.69c-.37-2.21-2.27-3.68-4.77-3.68s-4.08,1.34-4.08,3.18c0,1.47.84,2.24,2.65,2.62l4.52.97c3.12.69,5.36,2.43,5.36,5.7,0,3.93-3.21,6.39-8.01,6.39-4.43,0-8.1-2.15-8.63-6.2l3.55-.75c.5,2.68,2.59,3.99,5.39,3.99s4.39-1.34,4.39-3.24c0-1.59-.84-2.34-2.93-2.77l-4.55-.93c-2.59-.59-5.27-1.96-5.27-5.67s3.02-6.17,7.67-6.17c4.24,0,7.29,2.31,8.04,5.89Z"/>
    <path class="cls-1" d="M208.74,195.4l-2.06-4.86h-10.16l-2.06,4.86h-3.62l9.19-20.88h3.12l9.19,20.88h-3.62ZM201.6,178.6l-3.77,8.88h7.54l-3.77-8.88Z"/>
    <path class="cls-1" d="M233.77,195.4h-2.84l-12.62-14.99v14.99h-3.34v-20.88h2.84l12.59,15.24v-15.24h3.37v20.88Z"/>
    <path class="cls-1" d="M245.98,174.52c7.11,0,11.53,4.36,11.53,10.44s-4.43,10.44-11.53,10.44h-7.29v-20.88h7.29ZM245.98,192.37c5.08,0,8.17-3.08,8.17-7.42s-3.09-7.42-8.17-7.42h-3.96v14.83h3.96Z"/>
    <path class="cls-1" d="M282.94,195.4l-7.45-8.32h-3.02v8.32h-3.34v-20.88h9.82c4.3,0,7.17,2.53,7.17,6.3s-2.62,6.01-6.58,6.23l7.54,8.35h-4.14ZM278.95,184.05c2.31,0,3.83-1.31,3.83-3.24s-1.53-3.27-3.83-3.27h-6.48v6.51h6.48Z"/>
    <path class="cls-1" d="M306.07,195.4l-2.06-4.86h-10.16l-2.06,4.86h-3.62l9.19-20.88h3.12l9.19,20.88h-3.62ZM298.93,178.6l-3.77,8.88h7.54l-3.77-8.88Z"/>
    <path class="cls-1" d="M328.51,187.42l3.24.69c-1.15,4.89-5.2,7.73-10.13,7.73-6.08,0-10.88-4.77-10.88-10.88s4.8-10.88,10.88-10.88c4.92,0,8.94,2.87,10.13,7.48l-3.24.93c-.94-3.52-3.62-5.27-6.89-5.27-4.21,0-7.51,3.33-7.51,7.73s3.3,7.73,7.51,7.73c3.27,0,5.95-1.74,6.89-5.27Z"/>
    <path class="cls-1" d="M349.39,195.4l-9.19-8.79h-1.15v8.79h-3.34v-20.88h3.34v9.04h.9l9.13-9.04h4.14l-10.44,10.47,11.13,10.41h-4.52Z"/>
    <path class="cls-1" d="M371.48,179.97l-3.34.69c-.37-2.21-2.27-3.68-4.77-3.68s-4.08,1.34-4.08,3.18c0,1.47.84,2.24,2.65,2.62l4.52.97c3.12.69,5.36,2.43,5.36,5.7,0,3.93-3.21,6.39-8.01,6.39-4.43,0-8.1-2.15-8.63-6.2l3.55-.75c.5,2.68,2.59,3.99,5.39,3.99s4.39-1.34,4.39-3.24c0-1.59-.84-2.34-2.93-2.77l-4.55-.93c-2.59-.59-5.27-1.96-5.27-5.67s3.02-6.17,7.67-6.17c4.24,0,7.29,2.31,8.04,5.89Z"/>
  </g>
</svg>