<svg width="32" height="32" viewBox="0 0 32 32" fill="none" xmlns="http://www.w3.org/2000/svg">
<g clip-path="url(#clip0_931_2333)">
<path d="M26.5846 10.6659H28.0006C28.7079 10.6659 29.3862 10.9468 29.8863 11.4469C30.3864 11.947 30.6673 12.6253 30.6673 13.3325V18.6659C30.6673 19.3731 30.3864 20.0514 29.8863 20.5515C29.3862 21.0516 28.7079 21.3326 28.0006 21.3326H26.5846C26.2596 23.9103 25.005 26.2808 23.0563 27.9992C21.1076 29.7176 18.5988 30.6658 16.0006 30.6659V28.3988C18.1224 28.3988 20.4993 27.4991 21.9996 25.9988C23.4999 24.4985 24.3996 22.1209 24.3996 19.9992V11.9992C24.3996 9.87748 23.4999 7.49912 21.9996 5.99883C20.4993 4.49854 18.1224 3.59883 16.0006 3.59883C13.8789 3.59883 11.4999 4.49854 9.99961 5.99883C8.49932 7.49912 7.59961 9.87748 7.59961 11.9992V21.0459H4.00065C3.29341 21.0459 2.61513 20.8989 2.11503 20.3988C1.61494 19.8987 1.59961 19.3731 1.59961 18.6659V13.3325C1.59961 12.6253 1.89951 12.0989 2.39961 11.5988C2.89971 11.0987 2.89237 11.1988 3.59961 11.1988H5.59961C5.92498 8.62136 6.99676 5.71825 8.94541 4.00012C10.8941 2.28199 13.4027 1.33398 16.0006 1.33398C18.5986 1.33398 21.1072 2.28199 23.0559 4.00012C25.0045 5.71825 26.2593 8.08841 26.5846 10.6659ZM3.19961 12.7988V19.1988H5.59961V12.7988H3.19961ZM26.3996 12.7988V19.1988H28.7996V12.7988H26.3996ZM10.3473 21.0459L11.5996 19.5988C12.8704 20.3949 14.5011 20.8013 16.0006 20.7988C17.5002 20.8013 19.5288 20.3949 20.7996 19.5988L21.654 21.0459C19.9597 22.1074 18 22.669 16.0006 22.6659C14.0013 22.669 12.0416 22.1074 10.3473 21.0459Z" fill="#241F20" fill-opacity="0.75"/>
</g>
<defs>
<clipPath id="clip0_931_2333">
<rect width="32" height="32" fill="white"/>
</clipPath>
</defs>
</svg>
