<svg width="240" height="36" viewBox="0 0 240 36" fill="none" xmlns="http://www.w3.org/2000/svg">
<path d="M29.3317 12.3954H18.0244V23.6763H29.3317V12.3954Z" fill="#D71920"/>
<path d="M46.2127 1.0428H34.9811V12.3997H46.2127V1.0428Z" fill="#D71920"/>
<path d="M12.3708 1.0428H1.13916V12.3997H12.3708V1.0428Z" fill="#D71920"/>
<path d="M46.2127 23.6763H34.9811V34.9572H46.2127V23.6763Z" fill="#D71920"/>
<path d="M12.3708 23.6763H1.13916V34.9572H12.3708V23.6763Z" fill="#D71920"/>
<path d="M128.63 17.7024V17.6264C130.71 16.7313 131.681 14.937 131.681 12.6192C131.681 10.9009 131.16 9.48235 130.046 8.35933C128.932 7.3123 127.444 6.78879 125.435 6.78879H114.573V29.3505H126.251C128.331 29.3505 129.895 28.827 131.009 27.78C132.198 26.6612 132.795 25.0907 132.795 23.2964C132.795 21.8778 132.425 20.7548 131.681 19.7837C130.862 18.7367 129.895 18.0654 128.63 17.6939V17.7024ZM117.991 10.0059H124.91C126.024 10.0059 126.919 10.3056 127.44 10.9009C128.037 11.4244 128.26 12.1717 128.26 13.2187C128.26 14.1138 127.961 14.7893 127.44 15.3845C126.772 15.9841 126.028 16.2796 124.985 16.2796H117.995V10.0059H117.991ZM128.331 25.1709C127.734 25.8422 126.843 26.1419 125.729 26.1419H117.995V19.4924H125.729C126.772 19.4924 127.663 19.864 128.184 20.4635C128.852 21.063 129.151 21.882 129.151 22.7813C129.151 23.7523 128.852 24.6474 128.331 25.1709Z" fill="#231F20"/>
<path d="M153.993 22.186C149.752 16.8833 144.103 13.5945 141.198 6.79724H137.924V29.359H141.421V13.9702C145.511 19.1251 150.942 22.414 154.216 29.359H157.562V6.79301H153.993V22.1818V22.186Z" fill="#231F20"/>
<path d="M164.182 29.3548H180.694V26.1419H167.68V19.4967H178.689V16.2838H167.68V10.0059H180.694V6.79301H164.182V29.3548Z" fill="#231F20"/>
<path d="M79.0921 16.2844H66.5195V6.79359H63.0223V29.3553H66.5195V19.4972H79.0921V29.3553H82.5137V6.79359H79.0921V16.2844Z" fill="#231F20"/>
<path d="M104.527 20.4677C104.527 22.4098 104.082 23.9043 103.039 25.0231C101.997 26.0701 100.509 26.6654 98.575 26.6654C96.6414 26.6654 95.0778 26.0659 94.1866 25.0231C93.0727 23.9043 92.6229 22.4098 92.6229 20.4677V6.79301H89.1257V20.4635C89.1257 23.3006 89.9453 25.6944 91.6561 27.3367C93.2198 29.055 95.599 29.8023 98.575 29.8023C101.551 29.8023 103.855 29.055 105.565 27.3367C107.129 25.6944 107.944 23.3006 107.944 20.4635V6.79301H104.523V20.4635L104.527 20.4677Z" fill="#231F20"/>
<path d="M185.755 10.0059H192.821V29.3548H196.314V10.0059H203.455V6.79301H185.755V10.0059Z" fill="#231F20"/>
<path d="M212.753 6.79301H209.332V29.3548H212.753V6.79301Z" fill="#231F20"/>
<path d="M238.861 6.79301H234.695L228.52 15.2368L222.35 6.79301H218.184L226.44 18.0739L218.184 29.3548H222.35L228.52 20.9152L234.695 29.3548H238.861L230.605 18.0739L238.861 6.79301Z" fill="#231F20"/>
</svg>
