<svg width="162" height="30" viewBox="0 0 162 30" fill="none" xmlns="http://www.w3.org/2000/svg">
<mask id="path-1-inside-1_345_13" fill="white">
<path d="M0 2.54933H8.47889V11.2897H0V2.54933Z"/>
</mask>
<path d="M0 2.54933H8.47889V11.2897H0V2.54933Z" fill="white"/>
<path d="M8.47889 11.2897V12.1111H9.30031V11.2897H8.47889ZM7.65746 2.54933V11.2897H9.30031V2.54933H7.65746ZM8.47889 10.4682H0V12.1111H8.47889V10.4682Z" fill="black" fill-opacity="0.2" mask="url(#path-1-inside-1_345_13)"/>
<mask id="path-3-inside-2_345_13" fill="white">
<path d="M21.1973 2.54933H29.6762V11.2897H21.1973V2.54933Z"/>
</mask>
<path d="M21.1973 2.54933H29.6762V11.2897H21.1973V2.54933Z" fill="white"/>
<path d="M21.1973 11.2897H20.3758V12.1111H21.1973V11.2897ZM29.6762 10.4682H21.1973V12.1111H29.6762V10.4682ZM22.0187 11.2897V2.54933H20.3758V11.2897H22.0187Z" fill="black" fill-opacity="0.2" mask="url(#path-3-inside-2_345_13)"/>
<mask id="path-5-inside-3_345_13" fill="white">
<path d="M0 17.8448H8.47889V26.5852H0V17.8448Z"/>
</mask>
<path d="M0 17.8448H8.47889V26.5852H0V17.8448Z" fill="white"/>
<path d="M8.47889 17.8448H9.30031V17.0234H8.47889V17.8448ZM0 18.6663H8.47889V17.0234H0V18.6663ZM7.65746 17.8448V26.5852H9.30031V17.8448H7.65746Z" fill="black" fill-opacity="0.2" mask="url(#path-5-inside-3_345_13)"/>
<mask id="path-7-inside-4_345_13" fill="white">
<path d="M10.5986 10.197H19.0775V18.9374H10.5986V10.197Z"/>
</mask>
<path d="M10.5986 10.197H19.0775V18.9374H10.5986V10.197Z" fill="white"/>
<path d="M10.5986 11.0185H19.0775V9.37561H10.5986V11.0185ZM19.0775 18.1159H10.5986V19.7588H19.0775V18.1159Z" fill="black" fill-opacity="0.2" mask="url(#path-7-inside-4_345_13)"/>
<mask id="path-9-inside-5_345_13" fill="white">
<path d="M29.6763 17.8447H21.1974V26.5851H29.6763V17.8447Z"/>
</mask>
<path d="M29.6763 17.8447H21.1974V26.5851H29.6763V17.8447Z" fill="white"/>
<path d="M21.1974 17.8447H20.376V17.0233H21.1974V17.8447ZM29.6763 18.6662H21.1974V17.0233H29.6763V18.6662ZM22.0188 17.8447V26.5851H20.376V17.8447H22.0188Z" fill="black" fill-opacity="0.2" mask="url(#path-9-inside-5_345_13)"/>
<path d="M52.146 13.6787V15.4419H43.2964V13.6787H52.146ZM43.6333 6.64844V23H41.4658V6.64844H43.6333ZM54.0327 6.64844V23H51.8765V6.64844H54.0327ZM68.8497 6.64844H71.006V17.7104C71.006 18.9383 70.7327 19.9603 70.1862 20.7764C69.6396 21.5924 68.9134 22.2064 68.0075 22.6182C67.109 23.0225 66.132 23.2246 65.0763 23.2246C63.9682 23.2246 62.965 23.0225 62.0665 22.6182C61.1756 22.2064 60.4681 21.5924 59.944 20.7764C59.4274 19.9603 59.1691 18.9383 59.1691 17.7104V6.64844H61.3141V17.7104C61.3141 18.564 61.4713 19.2677 61.7858 19.8218C62.1002 20.3758 62.5382 20.7876 63.0997 21.0571C63.6688 21.3267 64.3276 21.4614 65.0763 21.4614C65.8325 21.4614 66.4913 21.3267 67.0529 21.0571C67.6219 20.7876 68.0636 20.3758 68.3781 19.8218C68.6925 19.2677 68.8497 18.564 68.8497 17.7104V6.64844ZM81.8474 15.3521H77.7034L77.6809 13.6113H81.4431C82.0646 13.6113 82.6074 13.5065 83.0716 13.2969C83.5358 13.0872 83.8951 12.7878 84.1497 12.3984C84.4117 12.0016 84.5428 11.5299 84.5428 10.9834C84.5428 10.3844 84.4267 9.89779 84.1946 9.52344C83.97 9.1416 83.6219 8.86458 83.1502 8.69238C82.686 8.5127 82.0945 8.42285 81.3758 8.42285H78.1863V23H76.0188V6.64844H81.3758C82.2143 6.64844 82.963 6.73454 83.6219 6.90674C84.2807 7.07145 84.8385 7.3335 85.2952 7.69287C85.7594 8.04476 86.1113 8.49398 86.3509 9.04053C86.5904 9.58708 86.7102 10.2422 86.7102 11.0059C86.7102 11.6797 86.538 12.2899 86.1936 12.8364C85.8492 13.3755 85.3701 13.8172 84.7561 14.1616C84.1497 14.506 83.4384 14.7269 82.6223 14.8242L81.8474 15.3521ZM81.7464 23H76.8499L78.074 21.2368H81.7464C82.4352 21.2368 83.0192 21.117 83.4983 20.8774C83.985 20.6379 84.3556 20.3009 84.6101 19.8667C84.8647 19.425 84.992 18.9046 84.992 18.3057C84.992 17.6992 84.8834 17.1751 84.6663 16.7334C84.4492 16.2917 84.1085 15.951 83.6443 15.7114C83.1801 15.4718 82.5812 15.3521 81.8474 15.3521H78.7591L78.7815 13.6113H83.0042L83.4646 14.2402C84.2508 14.3076 84.9171 14.5322 85.4637 14.9141C86.0102 15.2884 86.4257 15.7676 86.7102 16.3516C87.0022 16.9355 87.1482 17.5794 87.1482 18.2832C87.1482 19.3014 86.9236 20.1624 86.4744 20.8662C86.0327 21.5625 85.4075 22.0941 84.5989 22.4609C83.7903 22.8203 82.8395 23 81.7464 23ZM104.537 6.64844V23H102.358L94.1264 10.3882V23H91.9589V6.64844H94.1264L102.392 19.2939V6.64844H104.537ZM120.376 21.2368V23H111.717V21.2368H120.376ZM112.155 6.64844V23H109.988V6.64844H112.155ZM119.231 13.6787V15.4419H111.717V13.6787H119.231ZM120.264 6.64844V8.42285H111.717V6.64844H120.264ZM130.937 6.64844V23H128.803V6.64844H130.937ZM136.193 6.64844V8.42285H123.558V6.64844H136.193ZM142.553 6.64844V23H140.386V6.64844H142.553ZM149.711 6.64844L153.642 12.915L157.572 6.64844H160.099L154.933 14.7456L160.223 23H157.673L153.642 16.6099L149.61 23H147.061L152.35 14.7456L147.184 6.64844H149.711Z" fill="white"/>
</svg>
