<svg width="39" height="40" viewBox="0 0 39 40" fill="none" xmlns="http://www.w3.org/2000/svg">
<circle cx="19.5" cy="20" r="19.5" fill="#C53847" fill-opacity="0.24"/>
<path d="M26.8125 16.75L23.9193 18.3573C22.3064 19.2534 21.4999 19.7015 20.6458 19.8771C19.8898 20.0326 19.1102 20.0326 18.3542 19.8771C17.5001 19.7015 16.6936 19.2534 15.0807 18.3573L12.1875 16.75M14.7875 25.6875H24.2125C25.1226 25.6875 25.5777 25.6875 25.9253 25.5104C26.231 25.3546 26.4796 25.106 26.6354 24.8003C26.8125 24.4527 26.8125 23.9976 26.8125 23.0875V16.9125C26.8125 16.0024 26.8125 15.5474 26.6354 15.1998C26.4796 14.894 26.231 14.6454 25.9253 14.4896C25.5777 14.3125 25.1226 14.3125 24.2125 14.3125H14.7875C13.8774 14.3125 13.4224 14.3125 13.0748 14.4896C12.769 14.6454 12.5204 14.894 12.3646 15.1998C12.1875 15.5474 12.1875 16.0024 12.1875 16.9125V23.0875C12.1875 23.9976 12.1875 24.4527 12.3646 24.8003C12.5204 25.106 12.769 25.3546 13.0748 25.5104C13.4224 25.6875 13.8774 25.6875 14.7875 25.6875Z" stroke="#D23C4C" stroke-width="2" stroke-linecap="round" stroke-linejoin="round"/>
</svg>
