<svg width="26" height="26" viewBox="0 0 26 26" fill="none" xmlns="http://www.w3.org/2000/svg">
<path d="M12.9988 13.0006C14.987 13.0006 16.5988 11.3888 16.5988 9.40061C16.5988 7.41239 14.987 5.80061 12.9988 5.80061C11.0106 5.80061 9.3988 7.41239 9.3988 9.40061C9.3988 11.3888 11.0106 13.0006 12.9988 13.0006Z" stroke="#353535" stroke-width="1.5"/>
<path d="M20.1602 22.6012C19.9693 19.1314 18.907 16.6012 12.9972 16.6012C7.08757 16.6012 6.02521 19.1314 5.83423 22.6012" stroke="#353535" stroke-width="1.5" stroke-linecap="round"/>
<path d="M7 2.60538C8.76504 1.58436 10.8143 1 13 1C19.6274 1 25 6.37258 25 13C25 19.6274 19.6274 25 13 25C6.37258 25 1 19.6274 1 13C1 10.8143 1.58436 8.76504 2.60538 7" stroke="#353535" stroke-width="1.5" stroke-linecap="round"/>
</svg>
