<svg width="39" height="39" viewBox="0 0 39 39" fill="none" xmlns="http://www.w3.org/2000/svg">
<circle cx="19.5" cy="19.5" r="19.5" fill="#C53847" fill-opacity="0.24"/>
<path fill-rule="evenodd" clip-rule="evenodd" d="M24.4625 27.5262C22.7791 27.1045 19.3328 25.9154 16.2085 22.7911C13.0843 19.6669 11.8952 16.2206 11.4735 14.5372C11.2311 13.5698 11.6676 12.6362 12.4077 12.1076L14.3479 10.7217C15.4831 9.91086 17.0623 10.186 17.8564 11.3331L19.0779 13.0974C19.5964 13.8464 19.4176 14.8729 18.6763 15.4023L17.7024 16.098C17.8498 16.6619 18.3082 17.8198 19.7441 19.2556C21.1799 20.6915 22.3378 21.1499 22.9017 21.2973L23.5973 20.3233C24.1268 19.5821 25.1533 19.4032 25.9022 19.9217L27.6667 21.1432C28.8137 21.9374 29.0888 23.5165 28.2779 24.6518L26.8921 26.592C26.3634 27.3321 25.4299 27.7686 24.4625 27.5262ZM17.387 21.6126C20.2282 24.4538 23.3636 25.5327 24.8675 25.9095C25.0873 25.9645 25.3531 25.8791 25.5358 25.6233L26.9217 23.683C27.192 23.3047 27.1003 22.7783 26.7179 22.5135L24.9536 21.292L24.207 22.3373C23.9019 22.7645 23.3377 23.0995 22.6807 22.9577C21.8607 22.7808 20.3448 22.2134 18.5656 20.4341C16.7863 18.6549 16.2189 17.139 16.042 16.319C15.9002 15.662 16.2352 15.0978 16.6624 14.7927L17.7076 14.0461L16.4861 12.2817C16.2214 11.8994 15.695 11.8077 15.3166 12.078L13.3764 13.4638C13.1205 13.6466 13.0351 13.9123 13.0902 14.1322C13.467 15.6361 14.5459 18.7715 17.387 21.6126Z" fill="#D23C4C"/>
</svg>
