<svg width="32" height="32" viewBox="0 0 32 32" fill="none" xmlns="http://www.w3.org/2000/svg">
<path d="M22.2072 0L21.3976 0.88568C19.5855 2.87846 18.0916 3.76895 16.8482 4.35138C15.6048 4.93381 14.559 5.1071 13.5325 5.8917C12.4386 6.72924 10.8482 8.33694 10.1783 11.2058C8.74217 11.5187 7.69157 12.0674 6.86265 12.7846C6.04337 13.4922 5.42651 14.296 4.66506 15.1721C4.66024 15.1817 4.66988 15.201 4.66506 15.2106C3.5759 16.4621 2.62169 17.8099 0.771084 18.5223L0 18.8303V32H23.5181C24.8675 31.9278 25.8024 30.994 26.3711 30.0746C26.9398 29.1552 27.253 28.1588 27.412 27.3406C27.8217 25.2563 28.5687 19.2539 28.5687 19.2539L28.6072 19.1384V19.0229C28.5687 18.1901 28.2265 17.4826 27.7976 16.8279L29.1855 12.7076L31.3831 9.39591L32 8.51023L31.1904 7.77858L23.094 0.770156L22.2072 0ZM22.2843 3.38869L28.7229 8.97232L27.0265 11.4753L26.9108 11.5909L26.8723 11.7834L25.7542 15.0951C25.1711 14.8544 24.5687 14.6859 23.9036 14.71H23.8265L16.0386 14.7485H14.8048V19.5235C14.6313 20.8664 13.8843 21.3863 12.9542 21.7569C12.6458 21.8821 12.6072 21.8147 12.3373 21.8724V14.71C12.1349 10.142 13.7639 8.82792 15.0361 7.8556C15.388 7.58604 16.4193 7.27317 17.8892 6.58484C19.1181 6.00722 20.6458 4.97232 22.2843 3.38869ZM9.94699 13.9783C9.94217 14.2575 9.85542 14.4549 9.86988 14.7485C9.86988 14.7629 9.86988 14.7726 9.86988 14.787V24.6065H11.1036C11.1036 24.6065 12.4241 24.5921 13.841 24.0289C15.2578 23.4657 16.9687 22.1468 17.2723 19.8315V17.213L23.9036 17.1745H23.9422C25.0795 17.1119 26.0241 17.9735 26.1012 19.0999C26.0964 19.1191 26.0386 19.5764 26.0241 19.6775H20.9735V22.142H25.7157C25.5855 23.0951 25.4651 23.6919 25.3301 24.6065H20.9735V27.071H24.9446C24.8145 27.6197 24.5542 28.2744 24.2506 28.7653C23.9133 29.3141 23.6241 29.5211 23.3639 29.5355H2.46747V20.3321C4.46747 19.2732 5.71084 17.7473 6.51566 16.8279C7.3494 15.8749 7.92289 15.1528 8.48193 14.6715C8.84819 14.3586 9.42169 14.1805 9.94699 13.9783Z" fill="#241F20"/>
</svg>
