<svg width="32" height="32" viewBox="0 0 32 32" fill="none" xmlns="http://www.w3.org/2000/svg">
<path d="M27.3884 20.0087V11.9444C28.7934 11.5495 30.0098 10.663 30.8158 9.44625C31.6218 8.22953 31.9638 6.76369 31.7794 5.31592C31.5949 3.86814 30.8964 2.53485 29.8111 1.55906C28.7258 0.583272 27.326 0.0299667 25.8668 0C24.5235 0.00772431 23.2205 0.459647 22.1609 1.28533C21.1012 2.11101 20.3446 3.26405 20.0087 4.56473H11.9444C11.5495 3.15968 10.663 1.9433 9.44625 1.13729C8.22953 0.331283 6.76369 -0.0106709 5.31592 0.173759C3.86814 0.358188 2.53485 1.05672 1.55906 2.14203C0.583272 3.22733 0.0299667 4.62715 0 6.08631C0.00772431 7.42962 0.459647 8.73264 1.28533 9.79226C2.11101 10.8519 3.26405 11.6086 4.56473 11.9444V20.0087C3.15968 20.4036 1.9433 21.2902 1.13729 22.5069C0.331283 23.7236 -0.0106709 25.1894 0.173759 26.6372C0.358188 28.085 1.05672 29.4183 2.14203 30.3941C3.22733 31.3699 4.62715 31.9232 6.08631 31.9531C7.42962 31.9454 8.73264 31.4935 9.79226 30.6678C10.8519 29.8421 11.6086 28.6891 11.9444 27.3884H20.0087C20.2697 28.4335 20.8034 29.3906 21.5553 30.1619C22.3072 30.9333 23.2503 31.4913 24.2883 31.779C25.3264 32.0666 26.4222 32.0736 27.4639 31.7993C28.5055 31.5249 29.4557 30.979 30.2174 30.2174C30.979 29.4557 31.5249 28.5055 31.7993 27.4639C32.0736 26.4222 32.0666 25.3264 31.779 24.2883C31.4913 23.2503 30.9333 22.3072 30.1619 21.5553C29.3906 20.8034 28.4335 20.2697 27.3884 20.0087ZM25.8668 3.04315C26.4687 3.04315 27.0571 3.22163 27.5575 3.55602C28.0579 3.8904 28.448 4.36568 28.6783 4.92174C28.9087 5.47781 28.9689 6.08968 28.8515 6.68C28.7341 7.27031 28.4442 7.81255 28.0187 8.23814C27.5931 8.66374 27.0508 8.95357 26.4605 9.07099C25.8702 9.18841 25.2583 9.12815 24.7022 8.89782C24.1462 8.66749 23.6709 8.27744 23.3365 7.777C23.0021 7.27655 22.8237 6.68819 22.8237 6.08631C22.8237 5.27921 23.1443 4.50518 23.715 3.93447C24.2857 3.36377 25.0597 3.04315 25.8668 3.04315ZM3.04315 6.08631C3.04315 5.48443 3.22163 4.89607 3.55602 4.39562C3.8904 3.89518 4.36568 3.50513 4.92174 3.2748C5.47781 3.04447 6.08968 2.98421 6.68 3.10163C7.27031 3.21905 7.81255 3.50888 8.23814 3.93447C8.66374 4.36007 8.95357 4.90231 9.07099 5.49262C9.18841 6.08293 9.12815 6.69481 8.89782 7.25087C8.66749 7.80694 8.27744 8.28221 7.777 8.6166C7.27655 8.95099 6.68819 9.12946 6.08631 9.12946C5.27921 9.12946 4.50518 8.80885 3.93447 8.23814C3.36377 7.66744 3.04315 6.8934 3.04315 6.08631ZM6.08631 28.91C5.48443 28.91 4.89607 28.7315 4.39562 28.3971C3.89518 28.0627 3.50513 27.5874 3.2748 27.0314C3.04447 26.4753 2.98421 25.8634 3.10163 25.2731C3.21905 24.6828 3.50888 24.1406 3.93447 23.715C4.36007 23.2894 4.90231 22.9996 5.49262 22.8821C6.08293 22.7647 6.69481 22.825 7.25087 23.0553C7.80694 23.2856 8.28221 23.6757 8.6166 24.1761C8.95099 24.6766 9.12946 25.2649 9.12946 25.8668C9.12946 26.6739 8.80885 27.4479 8.23814 28.0187C7.66744 28.5894 6.8934 28.91 6.08631 28.91ZM20.0087 24.3452H11.9444C11.6774 23.2997 11.1339 22.3453 10.3709 21.5823C9.60782 20.8192 8.65343 20.2757 7.60789 20.0087V11.9444C8.65343 11.6774 9.60782 11.1339 10.3709 10.3709C11.1339 9.60782 11.6774 8.65343 11.9444 7.60789H20.0087C20.2757 8.65343 20.8192 9.60782 21.5823 10.3709C22.3453 11.1339 23.2997 11.6774 24.3452 11.9444V20.0087C23.2997 20.2757 22.3453 20.8192 21.5823 21.5823C20.8192 22.3453 20.2757 23.2997 20.0087 24.3452ZM25.8668 28.91C25.2649 28.91 24.6766 28.7315 24.1761 28.3971C23.6757 28.0627 23.2856 27.5874 23.0553 27.0314C22.825 26.4753 22.7647 25.8634 22.8821 25.2731C22.9996 24.6828 23.2894 24.1406 23.715 23.715C24.1406 23.2894 24.6828 22.9996 25.2731 22.8821C25.8634 22.7647 26.4753 22.825 27.0314 23.0553C27.5874 23.2856 28.0627 23.6757 28.3971 24.1761C28.7315 24.6766 28.91 25.2649 28.91 25.8668C28.91 26.6739 28.5894 27.4479 28.0187 28.0187C27.4479 28.5894 26.6739 28.91 25.8668 28.91Z" fill="black"/>
</svg>
