<svg width="32" height="32" viewBox="0 0 32 32" fill="none" xmlns="http://www.w3.org/2000/svg">
<path d="M22.666 4.44978C20.7048 3.31531 18.4279 2.66602 15.9994 2.66602C8.63555 2.66602 2.66602 8.63555 2.66602 15.9994C2.66602 18.1323 3.16684 20.1482 4.0573 21.936C4.29394 22.4111 4.3727 22.9542 4.23551 23.4668L3.44136 26.435C3.09662 27.7234 4.27536 28.902 5.56382 28.5574L8.53187 27.7632C9.04459 27.626 9.58763 27.7048 10.0627 27.9414C11.8505 28.8319 13.8664 29.3327 15.9994 29.3327C23.3631 29.3327 29.3327 23.3631 29.3327 15.9994C29.3327 13.5708 28.6834 11.2938 27.549 9.33268" stroke="#241F20" stroke-opacity="0.75" stroke-width="2" stroke-linecap="round"/>
<g clip-path="url(#clip0_931_1253)">
<path d="M14.2484 14.2504C14.2484 13.2839 15.0319 12.5004 15.9984 12.5004C16.9649 12.5004 17.7484 13.2839 17.7484 14.2504C17.7484 15.2169 16.9649 16.0004 15.9984 16.0004H15.2984V18.1004H15.9984C18.1248 18.1004 19.8484 16.3767 19.8484 14.2504C19.8484 12.1241 18.1248 10.4004 15.9984 10.4004C13.8721 10.4004 12.1484 12.1241 12.1484 14.2504H14.2484Z" fill="#241F20" fill-opacity="0.75"/>
<path d="M17.3988 19.5H15.2988V21.6H17.3988V19.5Z" fill="#241F20" fill-opacity="0.75"/>
</g>
<defs>
<clipPath id="clip0_931_1253">
<rect width="11.2" height="11.2" fill="white" transform="translate(10.3984 10.4004)"/>
</clipPath>
</defs>
</svg>
