<svg width="32" height="32" viewBox="0 0 32 32" fill="none" xmlns="http://www.w3.org/2000/svg">
<g clip-path="url(#clip0_931_1246)">
<path d="M13.3908 2.57009C14.4146 1.3308 16.314 1.3308 17.3379 2.57009L18.8739 4.42925C19.4156 5.08488 20.2475 5.4287 21.0939 5.34682L23.498 5.11425C25.102 4.95908 26.4488 6.30684 26.2924 7.91078L26.0614 10.2808C25.9784 11.1313 26.3254 11.9672 26.9863 12.509L28.8306 14.0209C30.08 15.0451 30.08 16.9564 28.8306 17.9805L26.9863 19.4924C26.3254 20.0343 25.9784 20.8701 26.0614 21.7207L26.2924 24.0907C26.4488 25.6945 25.102 27.0424 23.498 26.8871L21.0939 26.6547C20.2475 26.5727 19.4156 26.9166 18.8739 27.5722L17.3379 29.4314C16.314 30.6707 14.4146 30.6707 13.3908 29.4314L11.8548 27.5722C11.3131 26.9166 10.4812 26.5727 9.6347 26.6547L7.23069 26.8871C5.62663 27.0424 4.27989 25.6945 4.43627 24.0907L4.66734 21.7207C4.75027 20.8701 4.40329 20.0343 3.74236 19.4924L1.89801 17.9805C0.648582 16.9564 0.648582 15.0451 1.89801 14.0209L3.74236 12.509C4.40329 11.9672 4.75027 11.1313 4.66734 10.2808L4.43627 7.91078C4.27989 6.30684 5.62663 4.95908 7.23069 5.11425L9.6347 5.34682C10.4812 5.4287 11.3131 5.08488 11.8548 4.42925L13.3908 2.57009Z" stroke="#241F20" stroke-opacity="0.75" stroke-width="2"/>
<path d="M10.4023 16.99L13.3311 19.9073C13.8817 20.4557 14.7897 20.3911 15.257 19.7703L20.3282 13.0352" stroke="#241F20" stroke-opacity="0.75" stroke-width="2" stroke-linecap="round"/>
</g>
<defs>
<clipPath id="clip0_931_1246">
<rect width="32" height="32" fill="white"/>
</clipPath>
</defs>
</svg>
