<svg width="23" height="23" viewBox="0 0 23 23" fill="none" xmlns="http://www.w3.org/2000/svg">
<path d="M16.4523 4.55998V3.3418H15.0148V4.55998H7.94949V3.3418H6.51199V4.55998H2.03418V20.3417H20.8439V4.55998H16.4523ZM19.4064 18.9729H3.47168V10.4661H19.4064V18.9729ZM3.47168 9.09739V5.92873H6.51199V7.14692H7.94949V5.92873H15.0148V7.14692H16.4523V5.92873H19.4064V9.09739H3.47168Z" fill="#575757"/>
<path d="M11.0257 11.4434H9.60254V12.8121H11.0257V11.4434Z" fill="#575757"/>
<path d="M8.59647 14.0312H7.17334V15.4H8.59647V14.0312Z" fill="#575757"/>
<path d="M11.0257 14.0312H9.60254V15.4H11.0257V14.0312Z" fill="#575757"/>
<path d="M6.15945 14.0312H4.73633V15.4H6.15945V14.0312Z" fill="#575757"/>
<path d="M8.59647 16.625H7.17334V17.9937H8.59647V16.625Z" fill="#575757"/>
<path d="M11.0257 16.625H9.60254V17.9937H11.0257V16.625Z" fill="#575757"/>
<path d="M6.15945 16.625H4.73633V17.9937H6.15945V16.625Z" fill="#575757"/>
<path d="M15.9134 11.4434H14.4902V12.8121H15.9134V11.4434Z" fill="#575757"/>
<path d="M18.3426 11.4434H16.9194V12.8121H18.3426V11.4434Z" fill="#575757"/>
<path d="M13.4692 11.4434H12.0532V12.8121H13.4692V11.4434Z" fill="#575757"/>
<path d="M15.9134 14.0312H14.4902V15.4H15.9134V14.0312Z" fill="#575757"/>
<path d="M18.3426 14.0312H16.9194V15.4H18.3426V14.0312Z" fill="#575757"/>
<path d="M13.4692 14.0312H12.0532V15.4H13.4692V14.0312Z" fill="#575757"/>
<path d="M13.4692 16.625H12.0532V17.9937H13.4692V16.625Z" fill="#575757"/>
</svg>
