<svg width="50" height="52" viewBox="0 0 50 52" fill="none" xmlns="http://www.w3.org/2000/svg">
<rect x="0.5" y="0.5" width="49" height="51" rx="24.5" stroke="#58C189"/>
<path d="M27.1762 22.2358H14.9412C14.6915 22.2358 14.4522 22.1367 14.2757 21.9602C14.0992 21.7837 14 21.5443 14 21.2947C14 21.0451 14.0992 20.8057 14.2757 20.6292C14.4522 20.4527 14.6915 20.3535 14.9412 20.3535H27.1762C27.4258 20.3535 27.6652 20.4527 27.8417 20.6292C28.0182 20.8057 28.1174 21.0451 28.1174 21.2947C28.1174 21.5443 28.0182 21.7837 27.8417 21.9602C27.6652 22.1367 27.4258 22.2358 27.1762 22.2358ZM35.6466 22.2358H31.882C31.6324 22.2358 31.393 22.1367 31.2165 21.9602C31.04 21.7837 30.9408 21.5443 30.9408 21.2947C30.9408 21.0451 31.04 20.8057 31.2165 20.6292C31.393 20.4527 31.6324 20.3535 31.882 20.3535H35.6466C35.8962 20.3535 36.1356 20.4527 36.3121 20.6292C36.4886 20.8057 36.5878 21.0451 36.5878 21.2947C36.5878 21.5443 36.4886 21.7837 36.3121 21.9602C36.1356 22.1367 35.8962 22.2358 35.6466 22.2358Z" fill="#222222" fill-opacity="0.9"/>
<path d="M29.5291 24.5881C28.8776 24.5881 28.2407 24.3949 27.699 24.033C27.1573 23.671 26.7351 23.1565 26.4858 22.5546C26.2365 21.9527 26.1712 21.2904 26.2983 20.6514C26.4254 20.0124 26.7392 19.4255 27.1999 18.9648C27.6605 18.5041 28.2475 18.1904 28.8865 18.0633C29.5255 17.9362 30.1878 18.0014 30.7897 18.2507C31.3916 18.5001 31.9061 18.9223 32.268 19.464C32.63 20.0057 32.8232 20.6426 32.8232 21.2941C32.8232 22.1677 32.4761 23.0055 31.8584 23.6233C31.2406 24.2411 30.4027 24.5881 29.5291 24.5881ZM29.5291 19.8823C29.2499 19.8823 28.9769 19.9651 28.7448 20.1202C28.5126 20.2754 28.3317 20.4958 28.2248 20.7538C28.118 21.0118 28.09 21.2956 28.1445 21.5695C28.199 21.8433 28.3334 22.0949 28.5309 22.2923C28.7283 22.4897 28.9798 22.6242 29.2537 22.6787C29.5275 22.7331 29.8114 22.7052 30.0694 22.5983C30.3273 22.4915 30.5478 22.3105 30.7029 22.0784C30.858 21.8462 30.9408 21.5733 30.9408 21.2941C30.9408 20.9196 30.7921 20.5606 30.5274 20.2958C30.2626 20.0311 29.9035 19.8823 29.5291 19.8823ZM35.6466 31.6468H23.4116C23.162 31.6468 22.9226 31.5476 22.7461 31.3711C22.5696 31.1946 22.4704 30.9552 22.4704 30.7056C22.4704 30.456 22.5696 30.2166 22.7461 30.0401C22.9226 29.8636 23.162 29.7645 23.4116 29.7645H35.6466C35.8962 29.7645 36.1356 29.8636 36.3121 30.0401C36.4886 30.2166 36.5878 30.456 36.5878 30.7056C36.5878 30.9552 36.4886 31.1946 36.3121 31.3711C36.1356 31.5476 35.8962 31.6468 35.6466 31.6468ZM18.7058 31.6468H14.9412C14.6915 31.6468 14.4522 31.5476 14.2757 31.3711C14.0992 31.1946 14 30.9552 14 30.7056C14 30.456 14.0992 30.2166 14.2757 30.0401C14.4522 29.8636 14.6915 29.7645 14.9412 29.7645H18.7058C18.9554 29.7645 19.1948 29.8636 19.3713 30.0401C19.5478 30.2166 19.6469 30.456 19.6469 30.7056C19.6469 30.9552 19.5478 31.1946 19.3713 31.3711C19.1948 31.5476 18.9554 31.6468 18.7058 31.6468Z" fill="#222222" fill-opacity="0.9"/>
<path d="M21.0607 34.0002C20.4092 34.0002 19.7723 33.807 19.2306 33.4451C18.6889 33.0831 18.2667 32.5687 18.0173 31.9667C17.768 31.3648 17.7028 30.7025 17.8299 30.0635C17.957 29.4245 18.2707 28.8376 18.7314 28.3769C19.1921 27.9162 19.779 27.6025 20.418 27.4754C21.057 27.3483 21.7193 27.4135 22.3212 27.6629C22.9231 27.9122 23.4376 28.3344 23.7996 28.8761C24.1615 29.4178 24.3547 30.0547 24.3547 30.7062C24.3547 31.5798 24.0077 32.4177 23.3899 33.0354C22.7721 33.6532 21.9343 34.0002 21.0607 34.0002ZM21.0607 29.2944C20.7814 29.2944 20.5085 29.3772 20.2763 29.5323C20.0442 29.6875 19.8632 29.908 19.7564 30.1659C19.6495 30.4239 19.6216 30.7077 19.676 30.9816C19.7305 31.2554 19.865 31.507 20.0624 31.7044C20.2598 31.9018 20.5114 32.0363 20.7852 32.0908C21.0591 32.1452 21.3429 32.1173 21.6009 32.0104C21.8589 31.9036 22.0793 31.7226 22.2345 31.4905C22.3896 31.2583 22.4724 30.9854 22.4724 30.7062C22.4724 30.3317 22.3237 29.9727 22.0589 29.7079C21.7942 29.4432 21.4351 29.2944 21.0607 29.2944Z" fill="#222222" fill-opacity="0.9"/>
</svg>
